<?xml version="1.0" standalone="no"?><!DOCTYPE svg PUBLIC "-//W3C//DTD SVG 1.1//EN" "http://www.w3.org/Graphics/SVG/1.1/DTD/svg11.dtd"><svg class="icon" width="200px" height="200.00px" viewBox="0 0 1024 1024" version="1.1" xmlns="http://www.w3.org/2000/svg"><path d="M512 672c-5.4 0-11-1.4-15.8-4.2l-448-256c-10-5.6-16.2-16.4-16.2-27.8s6.2-22 16.2-27.8l448-256c9.8-5.6 22-5.6 31.8 0l448 256c10 5.6 16.2 16.4 16.2 27.8s-6.2 22-16.2 27.8l-448 256c-5 2.8-10.6 4.2-16 4.2zM128.4 384L512 603.2 895.6 384 512 164.8 128.4 384zM512 928h-0.4c-5.8 0-11-1.6-15.8-4.4L208.4 764c-10.2-5.6-16.4-16.4-16.4-28V480c0-17.6 14.4-32 32-32s32 14.4 32 32v237.2l224 124.4V640c0-17.6 14.4-32 32-32s32 14.4 32 32v201.6l224-124.4V480c0-17.6 14.4-32 32-32s32 14.4 32 32v256c0 11.6-6.4 22.4-16.4 28L528 923.6c-4.6 2.6-10 4.2-15.8 4.4h-0.2z m448-160c-17.6 0-32-14.4-32-32V384c0-17.6 14.4-32 32-32s32 14.4 32 32v352c0 17.6-14.4 32-32 32z" /></svg>