<?xml version="1.0" standalone="no"?><!DOCTYPE svg PUBLIC "-//W3C//DTD SVG 1.1//EN" "http://www.w3.org/Graphics/SVG/1.1/DTD/svg11.dtd"><svg class="icon" width="200px" height="200.00px" viewBox="0 0 1024 1024" version="1.1" xmlns="http://www.w3.org/2000/svg"><path d="M512 163.84a29.696 29.696 0 0 0-13.312 3.072L172.1856 336.128c-4.7104 2.4576-7.7824 6.0416-7.7824 9.1648 0 3.072 3.072 6.656 7.7824 9.1648l326.4 169.1136c8.0384 4.096 18.688 4.096 26.7264 0l326.4-169.1136c4.7104-2.4576 7.7312-6.0416 7.7312-9.216 0-3.072-3.0208-6.656-7.68-9.1136L525.312 166.912a29.696 29.696 0 0 0-13.312-3.1232z m0 424.2432c-14.336 0-28.7744-3.328-41.5744-9.984L144.0256 408.9856c-25.2928-13.1072-40.96-37.5296-40.96-63.744 0-26.2144 15.6672-50.688 40.96-63.744l326.4-169.1136a91.8528 91.8528 0 0 1 83.1488 0l326.4 169.1136c25.2928 13.1072 40.96 37.5296 40.96 63.744 0 26.2144-15.6672 50.6368-40.96 63.744l-326.4 169.1136c-12.8 6.656-27.136 9.984-41.5744 9.984z m0 163.4816c-15.0528 0-30.0544-3.4304-43.52-10.3936l-348.8768-180.7872a30.6688 30.6688 0 0 1-13.1072-41.3696 30.5664 30.5664 0 0 1 41.3696-13.1584l348.8768 180.6848a33.6384 33.6384 0 0 0 30.464 0l348.8768-180.736a30.6688 30.6688 0 1 1 28.2624 54.5792l-348.8768 180.736a95.232 95.232 0 0 1-43.4688 10.4448M512 921.6c-15.0528 0-30.0544-3.4304-43.52-10.3936l-348.8768-180.736a30.7712 30.7712 0 0 1 28.2624-54.6304l348.8768 180.736a33.792 33.792 0 0 0 30.464 0l348.8768-180.736a30.7712 30.7712 0 0 1 28.2624 54.6304l-348.8768 180.736A95.232 95.232 0 0 1 512 921.6" /></svg>