<?xml version="1.0" standalone="no"?><!DOCTYPE svg PUBLIC "-//W3C//DTD SVG 1.1//EN" "http://www.w3.org/Graphics/SVG/1.1/DTD/svg11.dtd"><svg class="icon" width="200px" height="200.00px" viewBox="0 0 1024 1024" version="1.1" xmlns="http://www.w3.org/2000/svg"><path d="M509.1875 960.85742188c-14.32617188 0-28.30078125-4.39453125-40.078125-12.56835938l-2.4609375-1.66992188-12.3046875-12.39257812-85.78125-87.5390625H231.98046875l-2.72460938-0.43945313c-32.25585938-5.36132813-56.6015625-32.34375-58.62304687-65.03906249l-0.08789063-1.0546875V646.73632813L80.45703125 557.43945313l-0.87890625-1.0546875C68.6796875 543.55273438 62.61523437 527.29296875 62.61523437 510.41796875v-0.61523438c0.3515625-16.69921875 6.41601563-32.78320313 17.22656251-45.52734375l0.79101562-0.96679687 89.6484375-90.08789063V237.69335937l0.08789063-1.05468749c2.37304688-35.5078125 30.76171875-63.72070313 66.35742187-65.7421875l1.84570313-0.08789063h131.22070312L461.7265625 80.6328125l0.61523438-0.61523438c26.27929688-23.11523438 65.56640625-23.46679688 92.19726562-0.703125l1.23046875 1.0546875 5.2734375 5.00976563 84.7265625 85.16601563h134.82421875l1.31835938 0.08789062c13.09570313 1.0546875 25.6640625 5.80078125 36.2109375 13.7109375l0.79101562 0.61523437 2.63671875 2.19726563 0.703125 0.61523437c2.54882813 2.37304688 5.00976563 4.83398438 7.29492188 7.47070313l0.87890625 0.96679687 2.4609375 3.33984375c8.17382813 11.07421875 12.83203125 24.34570313 13.44726562 38.05664063v128.05664063l89.6484375 91.49414062 9.93164063 10.01953125 1.49414062 2.02148438c16.61132813 22.93945313 17.9296875 53.61328125 3.25195312 77.78320312l-2.109375 3.42773438-102.21679687 101.77734374v133.06640626l-0.3515625 2.46093749c-4.48242188 29.00390625-26.3671875 52.20703125-55.10742188 58.359375l-3.33984375 0.703125H653.6796875L561.48242188 937.21484375l-6.76757813 7.03125-1.66992187 1.31835938c-12.48046875 9.84375-27.94921875 15.29296875-43.85742188 15.29296874z m2.4609375-55.54687501c1.23046875 0.3515625 2.54882813 0.26367188 3.69140625-0.26367187l3.95507813-4.13085938 105.90820312-107.84179687h166.81640625c0.87890625-0.52734375 1.58203125-1.31835938 1.93359375-2.28515625V624.5L906.62890625 513.23046875v-0.96679688c0-0.3515625-0.08789063-0.703125-0.17578125-1.0546875l-5.88867188-5.88867187-106.52343749-105.90820313 0.08789062-164.53124999c-0.08789063-0.61523438-0.3515625-1.23046875-0.703125-1.66992188l-0.87890625-1.14257813-0.43945312-0.43945312-0.43945313-0.3515625c-0.43945313-0.26367188-0.79101563-0.43945313-1.31835937-0.52734375H625.203125l-106.34765625-108.28125-3.25195313-3.07617188c-1.7578125-1.23046875-4.13085938-1.23046875-5.88867187 0L400.203125 230.66210937H235.671875c-2.19726563 0.3515625-3.8671875 2.02148438-4.30664063 4.13085938v164.61914063L120.27148437 508.66015625c-0.703125 1.0546875-1.14257813 2.28515625-1.23046874 3.515625 0.08789063 0.87890625 0.3515625 1.84570313 0.87890625 2.54882813L231.36523437 624.5v164.79492188c0.26367188 1.66992188 1.31835938 2.98828125 2.81250001 3.77929687h165.93749999l104.58984376 105.38085938 6.94335937 6.85546874z m0 0M644.5390625 360.91601562c-19.42382813-9.66796875-43.06640625-1.66992188-52.64648438 17.75390626l-79.80468749 160.83984374-79.8046875-160.83984374c-9.66796875-19.42382813-33.22265625-27.421875-52.64648438-17.75390626s-27.421875 33.22265625-17.75390625 52.64648438l114.34570313 230.2734375c3.60351563 8.0859375 9.93164063 15.02929688 18.45703124 19.24804688 4.5703125 2.28515625 9.31640625 3.515625 14.0625 3.95507812h0.26367188c0.43945313 0 0.96679688 0.08789063 1.40625 0.08789062h3.515625c0.43945313 0 0.96679688-0.08789063 1.40625-0.08789062h0.26367187c4.74609375-0.43945313 9.4921875-1.66992188 14.0625-3.95507813 8.52539063-4.21875 14.85351563-11.16210938 18.45703125-19.24804687l114.34570313-230.2734375c9.40429688-19.42382813 1.49414063-42.97851563-17.9296875-52.64648438z" /></svg>