<?xml version="1.0" standalone="no"?><!DOCTYPE svg PUBLIC "-//W3C//DTD SVG 1.1//EN" "http://www.w3.org/Graphics/SVG/1.1/DTD/svg11.dtd"><svg class="icon" width="200px" height="200.00px" viewBox="0 0 1024 1024" version="1.1" xmlns="http://www.w3.org/2000/svg"><path d="M468.49137778 369.05870222h62.87815111v220.09173333a31.45728 31.45728 0 1 1-62.87815111 0v-220.09173333z m-78.60679111-47.14951111h235.82037333v62.87815111h-235.82037333V321.9456zM224.26055111 726.6304l124.37276444-357.24401778c4.36906667-12.48824889 4.69674667-25.99594667 0.98304-38.66624l-50.7539911-174.28935111A63.56992 63.56992 0 0 1 359.88366222 75.09333333h291.6352a63.56992 63.56992 0 0 1 61.09411556 81.00977778l-49.91658667 174.76266667c-3.64088889 12.59747555-3.24039111 25.99594667 1.09226667 38.33856l124.40917333 357.42606222a63.56992 63.56992 0 0 1-26.50567111 74.89308445l-221.91217778 137.80764444c-20.53461333 12.74311111-46.53056 12.74311111-67.06517333 0l-221.94858667-137.80764444a63.56992 63.56992 0 0 1-26.50567111-74.89308445z m80.39082667 34.73408l184.84792889 114.54236445a31.78496 31.78496 0 0 0 33.49617778 0l184.81152-114.54236445a31.78496 31.78496 0 0 0 13.25283555-37.50115555l-126.59370667-362.55971556a31.78496 31.78496 0 0 1-0.54613333-19.22389334l46.89464889-163.54872888a31.78496 31.78496 0 0 0-30.58346667-40.55950222H400.95288889a31.78496 31.78496 0 0 0-30.47424 40.77795555l48.02332444 163.22104889a31.78496 31.78496 0 0 1-0.47331555 19.44234666L291.36213333 723.89973333a31.78496 31.78496 0 0 0 13.25283556 37.50115556z" /></svg>