<?xml version="1.0" standalone="no"?><!DOCTYPE svg PUBLIC "-//W3C//DTD SVG 1.1//EN" "http://www.w3.org/Graphics/SVG/1.1/DTD/svg11.dtd"><svg class="icon" width="200px" height="200.00px" viewBox="0 0 1024 1024" version="1.1" xmlns="http://www.w3.org/2000/svg"><path d="M504.413 579.119a221.23 221.23 0 1 0-257.862 0A326.703 326.703 0 0 0 49.06 878.918a34.444 34.444 0 0 0 68.84 0 257.63 257.63 0 0 1 515.259 0 34.444 34.444 0 0 0 68.84 0 326.796 326.796 0 0 0-197.585-299.8z m-281.32-179.014a152.343 152.343 0 1 1 152.343 152.343 152.483 152.483 0 0 1-152.344-152.436zM933.609 248.087h-229.47a34.444 34.444 0 1 1 0-68.84h229.47a34.444 34.444 0 0 1 0 68.84z m0 137.682h-229.47a34.444 34.444 0 0 1 0-68.841h229.47a34.444 34.444 0 0 1 0 68.84z m0 137.681h-229.47a34.444 34.444 0 0 1 0-68.84h229.47a34.444 34.444 0 0 1 0 68.84z" /></svg>