<?xml version="1.0" standalone="no"?><!DOCTYPE svg PUBLIC "-//W3C//DTD SVG 1.1//EN" "http://www.w3.org/Graphics/SVG/1.1/DTD/svg11.dtd"><svg class="icon" width="200px" height="200.00px" viewBox="0 0 1024 1024" version="1.1" xmlns="http://www.w3.org/2000/svg"><path d="M868.15625 388.53125c0 3.75-1.40625 7.03125-4.125 10.03125-1.5 1.5-4.875 4.03125-9.75 4.03125H635.75c-7.78125 0-14.15625-6.375-14.15625-14.15625v-218.4375c0-7.78125 6.375-14.15625 14.15625-14.15625h218.25c7.78125 0 14.15625 6.375 14.15625 14.15625v218.53125zM854.09375 92H635.75c-43.03125 0-78 34.96875-78 78V388.25c0 43.03125 34.96875 78 78 78h218.4375c20.8125 0 40.3125-8.0625 55.125-22.78125 14.71875-14.71875 22.78125-34.3125 22.6875-55.21875V170c0.09375-43.03125-34.875-78-77.90625-78z m14.0625 762.28125c0 3.75-1.40625 7.03125-4.125 10.03125-1.5 1.5-4.875 4.03125-9.75 4.03125H635.75c-7.78125 0-14.15625-6.375-14.15625-14.15625V635.75c0-7.78125 6.375-14.15625 14.15625-14.15625h218.25c7.78125 0 14.15625 6.375 14.15625 14.15625v218.53125z m-14.0625-296.53125H635.75c-43.03125 0-78 34.96875-78 78v218.25c0 43.03125 34.96875 78 78 78h218.4375c20.8125 0 40.3125-8.0625 55.125-22.78125 14.71875-14.71875 22.78125-34.3125 22.6875-55.21875V635.75c0.09375-43.125-34.875-78-77.90625-78zM402.5 388.53125c0 3.75-1.40625 7.03125-4.125 10.03125-1.5 1.5-4.875 4.03125-9.75 4.03125H170c-7.78125 0-14.15625-6.375-14.15625-14.15625v-218.4375c0-7.78125 6.375-14.15625 14.15625-14.15625H388.25c7.78125 0 14.15625 6.375 14.15625 14.15625v218.53125h0.09375zM388.34375 92H170C126.96875 92 92 126.96875 92 170V388.25c0 43.03125 34.96875 78 78 78h218.53125c20.8125 0 40.3125-8.0625 55.125-22.78125 14.71875-14.71875 22.78125-34.3125 22.6875-55.21875V170c0-43.03125-34.875-78-78-78z m14.15625 762.28125c0 3.75-1.40625 7.03125-4.125 10.03125-1.5 1.5-4.875 4.03125-9.75 4.03125H170c-7.78125 0-14.15625-6.375-14.15625-14.15625V635.75c0-7.78125 6.375-14.15625 14.15625-14.15625H388.25c7.78125 0 14.15625 6.375 14.15625 14.15625v218.53125h0.09375z m-14.15625-296.53125H170c-43.03125 0-78 34.96875-78 78v218.25c0 43.03125 34.96875 78 78 78h218.53125c20.8125 0 40.3125-8.0625 55.125-22.78125 14.71875-14.71875 22.78125-34.3125 22.6875-55.21875V635.75c0-43.125-34.875-78-78-78z" /></svg>